<?xml version="1.0" standalone="no"?>
<!DOCTYPE svg PUBLIC "-//W3C//DTD SVG 20010904//EN"
 "http://www.w3.org/TR/2001/REC-SVG-20010904/DTD/svg10.dtd">
<svg version="1.0" xmlns="http://www.w3.org/2000/svg"
 width="734.000000pt" height="438.000000pt" viewBox="0 0 734.000000 438.000000"
 preserveAspectRatio="xMidYMid meet">

<g transform="translate(0.000000,438.000000) scale(0.100000,-0.100000)"
fill="#000000" stroke="none">
<path d="M3635 4095 c-5 -2 -48 -9 -95 -15 -127 -15 -212 -29 -240 -39 -14 -5
-52 -17 -85 -27 -33 -9 -67 -20 -75 -24 -8 -4 -60 -27 -115 -51 -55 -24 -135
-65 -177 -91 -43 -26 -81 -48 -85 -48 -14 0 -161 -117 -213 -169 -217 -220
-312 -349 -406 -554 -58 -129 -28 -244 70 -265 26 -5 124 -6 242 -1 613 24
737 30 814 40 47 6 195 15 330 20 507 19 685 27 700 33 8 3 85 10 171 14 149
7 159 9 197 36 49 34 76 85 68 130 -8 40 -71 103 -117 116 -34 10 -429 -5
-804 -30 -174 -12 -427 -25 -770 -40 -121 -5 -286 -14 -366 -21 -168 -14 -183
-12 -169 27 24 63 177 232 321 355 117 100 368 232 494 259 211 46 242 50 417
50 268 0 455 -43 668 -153 175 -91 360 -244 459 -380 23 -32 52 -61 64 -66 12
-4 82 -5 156 -2 126 6 134 7 142 28 24 65 -241 392 -428 528 -35 25 -65 45
-68 45 -3 0 -40 22 -83 48 -73 45 -183 102 -197 102 -4 0 -23 7 -43 16 -64 28
-76 32 -137 49 -33 9 -70 21 -83 26 -24 9 -76 18 -257 44 -91 13 -276 19 -300
10z" fill = '#2B3A65'/>
<path d="M5697 3156 c-113 -48 -163 -87 -209 -161 -47 -78 -48 -89 -48 -678
l0 -557 26 -6 c40 -10 186 5 211 22 23 14 23 15 23 289 l0 274 33 6 c17 3 61
6 97 8 l65 2 3 118 c2 88 -1 119 -10 122 -7 3 -44 1 -83 -4 -104 -13 -105 -12
-105 120 0 120 12 165 51 193 29 20 81 21 118 2 24 -13 31 -13 60 1 81 40 113
143 61 198 -67 71 -193 93 -293 51z" fill = '#2B3A65'/>
<path d="M1900 3060 c-8 -5 -31 -16 -51 -25 -50 -22 -139 -114 -155 -161 -11
-31 -14 -166 -14 -669 0 -599 1 -631 18 -642 14 -8 44 -8 123 2 57 8 105 14
107 14 6 2 1 1491 -5 1490 -5 0 -15 -4 -23 -9z " fill = '#2B3A65'/>
<path d="M5035 3035 c-80 -41 -115 -120 -95 -212 19 -82 66 -115 166 -114 37
0 76 7 94 16 78 40 106 165 54 246 -43 69 -148 100 -219 64z" fill = '#2B3A65'/>
<path d="M4255 2661 c-22 -5 -59 -18 -82 -30 -23 -11 -47 -21 -53 -21 -6 0
-43 -33 -83 -72 -51 -52 -77 -87 -90 -123 -10 -27 -23 -58 -28 -67 -5 -10 -9
-158 -9 -332 0 -269 2 -315 15 -326 19 -16 199 -8 220 10 11 10 15 69 17 311
2 199 7 302 14 307 6 4 13 15 17 25 4 9 15 20 24 24 10 3 26 13 37 22 12 11
38 16 85 16 55 0 72 -4 99 -25 60 -45 62 -54 62 -362 0 -346 -6 -335 159 -306
109 19 102 -3 98 332 -4 323 -8 356 -65 445 -41 66 -84 104 -161 144 -47 24
-70 29 -146 32 -49 2 -108 0 -130 -4z" fill = '#2B3A65'/>
<path d="M6651 2611 c-7 -12 -11 -96 -11 -209 0 -104 -3 -203 -6 -220 -9 -45
-81 -118 -129 -131 -115 -31 -201 6 -246 108 -17 38 -19 67 -19 247 0 111 -4
205 -9 208 -18 12 -222 -7 -237 -21 -23 -23 -19 -373 5 -480 35 -157 150 -287
281 -320 108 -28 227 -22 302 16 23 11 45 18 50 15 9 -6 11 -345 2 -391 -7
-33 -47 -83 -84 -104 -42 -23 -113 -38 -132 -28 -9 5 -25 9 -35 9 -30 0 -93
60 -116 109 -15 33 -23 74 -27 146 l-5 100 -35 -1 c-84 -2 -181 -18 -191 -31
-8 -9 -10 -57 -7 -158 6 -144 6 -145 43 -212 122 -221 382 -298 619 -184 68
33 130 94 183 179 l48 77 0 645 0 645 -117 3 c-108 2 -118 1 -127 -17z" fill = '#2B3A65'  />
<path d="M3260 2603 c-14 -2 -34 -8 -45 -12 -11 -5 -47 -17 -79 -27 -33 -11
-73 -31 -89 -47 -28 -26 -29 -30 -23 -84 10 -86 35 -163 52 -163 17 0 98 44
128 69 13 12 40 16 106 16 88 0 89 0 124 -34 20 -19 33 -38 29 -42 -5 -4 -61
-12 -125 -17 -144 -12 -205 -39 -280 -122 -99 -110 -105 -232 -18 -363 74
-110 193 -156 370 -143 121 8 154 20 209 74 69 68 98 127 104 212 l2 35 -94
-2 c-71 -2 -101 -7 -119 -20 -54 -39 -89 -52 -140 -53 -105 0 -169 64 -114
113 10 9 45 17 82 20 322 24 385 31 398 46 9 11 12 50 10 131 -3 107 -5 119
-36 180 -57 114 -131 179 -245 215 -75 23 -140 29 -207 18z" fill = '#2B3A65'/>
<path d="M5045 2560 l-70 -5 -3 -401 c-2 -344 0 -403 13 -414 10 -9 40 -10
110 -5 83 6 98 10 110 29 18 26 33 762 16 785 -10 16 -61 19 -176 11z" fill = '#2B3A65'/>
<path d="M1050 2541 c-8 -5 -40 -16 -70 -26 -30 -9 -76 -31 -102 -48 -45 -31
-158 -133 -158 -143 0 -3 -11 -30 -25 -59 -63 -138 -63 -333 0 -463 14 -28 25
-54 25 -57 0 -6 37 -51 66 -79 60 -61 144 -111 224 -133 99 -27 263 -9 348 39
44 25 132 108 132 124 0 6 7 24 15 40 13 25 13 31 -3 56 -16 25 -108 98 -124
98 -4 0 -24 -16 -45 -35 -51 -47 -97 -68 -161 -73 -82 -7 -136 13 -196 74 -42
42 -55 63 -66 107 -23 96 4 198 68 255 39 35 127 72 170 72 65 0 148 -38 196
-89 33 -35 50 -38 74 -15 116 107 121 121 70 188 -59 77 -115 122 -175 141
-32 9 -66 21 -75 26 -22 11 -168 11 -188 0z" fill = '#2B3A65'/>
<path d="M2386 2541 c-3 -4 -20 -11 -37 -15 -106 -21 -260 -171 -294 -284 -8
-29 -22 -75 -30 -103 -19 -64 -19 -102 -1 -159 8 -25 22 -71 31 -102 9 -32 19
-58 23 -58 4 0 13 -14 21 -31 14 -33 115 -139 131 -139 6 0 34 -11 63 -25 98
-48 262 -55 352 -15 22 10 56 25 75 33 19 9 47 27 62 40 31 29 88 131 88 159
0 26 -18 58 -33 58 -7 1 -30 9 -52 20 -49 24 -78 25 -96 4 -7 -9 -33 -30 -58
-47 -43 -30 -52 -32 -131 -32 -78 0 -88 2 -125 29 -49 37 -74 66 -75 87 0 19
26 22 380 40 163 8 219 14 230 25 12 11 15 38 14 113 -2 89 -5 106 -33 166
-43 90 -116 162 -212 208 -73 35 -81 37 -182 37 -58 0 -108 -4 -111 -9z m221
-262 c34 -21 49 -48 30 -54 -31 -9 -306 -15 -311 -6 -6 10 44 51 62 51 6 0 12
5 14 11 11 32 151 31 205 -2z" fill = '#2B3A65'/>
<path d="M5540 1597 c-3 -2 -86 -7 -185 -11 -260 -9 -538 -25 -630 -36 -44 -5
-138 -9 -210 -9 -188 -1 -558 -19 -720 -36 -77 -8 -214 -17 -305 -20 -335 -10
-647 -26 -710 -35 -36 -5 -195 -15 -355 -21 -159 -7 -344 -15 -410 -19 -66 -5
-226 -13 -355 -19 -129 -6 -296 -15 -370 -21 -74 -6 -156 -10 -183 -10 -52 0
-112 -31 -141 -72 -23 -33 -20 -98 7 -129 50 -59 72 -64 297 -61 113 2 255 7
315 12 61 6 230 13 376 16 l265 7 56 -79 c31 -43 75 -99 98 -124 95 -102 177
-185 216 -216 51 -42 186 -134 197 -134 4 0 31 -15 60 -33 85 -54 292 -147
328 -147 8 0 19 -4 25 -9 26 -24 202 -58 422 -82 251 -28 618 44 888 172 33
16 64 29 68 29 4 0 20 8 34 19 15 10 50 31 77 46 63 35 224 156 279 209 100
98 205 218 254 290 28 42 52 79 52 81 0 2 21 38 46 80 l45 75 143 0 c167 0
214 12 270 69 61 62 58 159 -6 201 -22 13 -226 29 -238 17z m-950 -376 c3 -1
-2 -6 -10 -11 -11 -7 -12 -10 -2 -10 7 0 20 -7 28 -15 11 -11 12 -15 3 -15 -7
0 -22 -8 -33 -18 -12 -10 -47 -25 -78 -32 -32 -7 -58 -17 -58 -22 0 -14 -70
-40 -107 -40 -22 0 -37 -6 -43 -18 -7 -12 -6 -20 1 -22 5 -2 7 -10 4 -18 -8
-19 -101 -64 -119 -57 -7 3 -26 -1 -41 -9 -15 -8 -35 -14 -44 -14 -9 0 -24 -9
-33 -19 -11 -13 -41 -23 -92 -32 -42 -6 -76 -16 -76 -21 0 -5 -10 -8 -22 -6
-16 2 -29 -5 -40 -21 -15 -22 -18 -23 -24 -8 -5 14 -13 9 -48 -28 -28 -30 -52
-46 -76 -50 -19 -3 -42 -13 -51 -21 -8 -7 -23 -14 -33 -14 -9 0 -39 -9 -66
-21 -43 -18 -56 -20 -97 -11 -26 6 -81 16 -121 23 -40 7 -75 16 -78 21 -3 4
-12 8 -21 8 -30 0 -244 112 -310 163 -38 29 -81 61 -98 71 -43 27 -175 157
-175 172 0 18 25 24 108 24 42 0 142 4 222 10 476 33 1572 74 1630 61z" fill = '#2B3A65' stroke = "none"/>
</g>
</svg>
